<?xml version="1.0" encoding="UTF-8"?>
<svg xmlns="http://www.w3.org/2000/svg" xmlns:xlink="http://www.w3.org/1999/xlink" width="2836" height="2837" viewBox="0 0 2836 2837">
<path fill-rule="evenodd" fill="rgb(58.984375%, 58.984375%, 58.984375%)" fill-opacity="1" d="M 1 0.351562 L 2835.648438 0.351562 L 2835.648438 2835 L 1 2835 L 1 0.351562 "/>
<path fill-rule="evenodd" fill="rgb(0%, 0%, 0%)" fill-opacity="1" d="M 0.511719 1.449219 L 2835.160156 1.449219 L 2835.160156 2836.09375 L 0.511719 2836.09375 L 0.511719 1.449219 "/>
<path fill-rule="evenodd" fill="rgb(88.084412%, 88.084412%, 31.005859%)" fill-opacity="1" d="M 925.898438 1761.621094 C 911.925781 1753.800781 917.253906 1764.550781 912.703125 1749.820312 C 957.054688 1726.890625 973.777344 1742.859375 1018.539062 1755.570312 C 1010.089844 1769.828125 1003.128906 1760.109375 979.246094 1777.039062 C 965.25 1786.949219 956.316406 1793.679688 950.554688 1807.480469 C 971.628906 1806.789062 1007.679688 1801.78125 1014.640625 1819.828125 C 1020.050781 1833.851562 1010.550781 1813.488281 1016.140625 1827.398438 C 1019.691406 1836.238281 1024.601562 1834.28125 1028.511719 1845.804688 C 1000.179688 1842.09375 980.066406 1813.199219 946.539062 1825.511719 C 926.75 1832.769531 895.625 1853.222656 891.53125 1872.949219 C 905.578125 1864.839844 928.460938 1841.453125 950.503906 1836.03125 C 973.609375 1830.351562 1009.699219 1843.125 1024.871094 1854.328125 C 1028.011719 1880.636719 1020.140625 1877.25 994.8125 1877.273438 C 943.40625 1877.328125 959.3125 1871.59375 924.675781 1907.8125 C 917.828125 1914.972656 905.453125 1925.679688 902.242188 1936.675781 C 968.117188 1915.351562 976.15625 1898.714844 1004.238281 1932.535156 C 1099.621094 2047.390625 1046.488281 2001.902344 1044.480469 2048.511719 L 1064.160156 2038.625 C 1059.78125 2062.628906 1048.628906 2077.347656 1036.480469 2091.0625 C 1015.820312 2114.386719 1008.128906 2103.664062 1009.710938 2144.828125 C 1017.261719 2135.546875 1013.761719 2133.183594 1030.160156 2117.179688 C 1038.671875 2108.871094 1044.441406 2103.039062 1054.101562 2095.664062 C 1069.25 2084.101562 1085.769531 2057.175781 1111.671875 2062.46875 C 1129.230469 2078.078125 1112.730469 2079.109375 1141.828125 2090.644531 C 1155.410156 2096.03125 1170.828125 2099.011719 1179.820312 2107.753906 C 1172.800781 2112.550781 1178.730469 2109.375 1168.25 2112.566406 C 1132.859375 2123.335938 1160.769531 2112.175781 1122.929688 2157.941406 C 1106.25 2178.109375 1096.109375 2209.179688 1098.660156 2241.390625 C 1104.648438 2232.996094 1102.929688 2232.78125 1103.03125 2232.484375 C 1107.671875 2218.371094 1107.421875 2191.9375 1124.570312 2172.933594 L 1122.109375 2201.460938 C 1131.121094 2193.867188 1139.851562 2177.628906 1148.789062 2164.402344 C 1172.671875 2129.117188 1187.671875 2148.160156 1251.460938 2147.960938 C 1280.21875 2147.867188 1277.53125 2146.585938 1295.808594 2163.96875 C 1315.578125 2182.769531 1348.808594 2199.769531 1353.058594 2234.53125 C 1357.460938 2270.492188 1333.339844 2309.101562 1328.53125 2338.894531 C 1349.351562 2335.003906 1377.28125 2298.445312 1378.800781 2286.335938 C 1380.828125 2270.160156 1370.980469 2219.09375 1370.789062 2194.828125 C 1394.679688 2203.835938 1394.070312 2217.226562 1456.03125 2235.085938 C 1549.25 2261.953125 1544.429688 2240.285156 1566.710938 2305.777344 C 1574.679688 2329.199219 1570.621094 2338.613281 1567.789062 2361.425781 C 1559.289062 2429.785156 1545.988281 2395.53125 1528.710938 2441.371094 C 1538.980469 2440.058594 1557.949219 2430.34375 1564.398438 2424.015625 C 1575.128906 2413.5 1574.21875 2398.445312 1577.769531 2382.132812 C 1582.761719 2384.980469 1583.570312 2384.269531 1589.601562 2393.808594 C 1670.28125 2521.550781 1566.480469 2490.320312 1543.238281 2490.191406 C 1551.429688 2500.675781 1564.410156 2502.105469 1578.859375 2505.488281 C 1589.371094 2507.949219 1606.03125 2508.617188 1617.429688 2514.097656 L 1613.160156 2537.894531 C 1580.25 2535.570312 1576.570312 2522.664062 1554.289062 2509.621094 C 1539.671875 2501.066406 1515.871094 2492.464844 1497.691406 2485.148438 C 1431.421875 2458.488281 1442.199219 2470.078125 1424.539062 2435.269531 C 1419.871094 2426.070312 1414.378906 2420.082031 1411.609375 2409.300781 L 1452.679688 2429.648438 C 1446.539062 2390.378906 1442.710938 2407.480469 1451.109375 2365.410156 C 1435.660156 2369.632812 1430.519531 2377.382812 1415.398438 2375.488281 C 1387.421875 2363.339844 1436.769531 2296.675781 1441.078125 2256.339844 C 1433.378906 2259.820312 1436.300781 2254.875 1423.140625 2272.996094 C 1384.789062 2325.824219 1358.269531 2384.824219 1307.460938 2370.660156 C 1271.300781 2360.578125 1242.878906 2353.378906 1212.179688 2338.9375 C 1188.488281 2327.800781 1145.578125 2306.257812 1121.410156 2302.09375 L 1114.75 2315.574219 L 1096.660156 2306.84375 C 1104.339844 2317.894531 1125.519531 2343.480469 1129.308594 2359.203125 C 1105.359375 2353.535156 1058.851562 2311.625 1038.078125 2298.386719 C 985.425781 2264.824219 1001.761719 2282.914062 996.222656 2228.960938 C 996.03125 2227.125 994.316406 2213.664062 993.863281 2212.15625 C 992.328125 2207.066406 990.105469 2202.269531 986.082031 2200.246094 L 981.703125 2247 C 957.4375 2240.808594 958.160156 2192.605469 952.46875 2165.789062 C 944.492188 2128.214844 937.699219 2114.0625 938.257812 2070.152344 C 947.609375 2064.613281 967.660156 2050.480469 973.5625 2041.300781 C 952.121094 2044.042969 941.046875 2054.488281 929.867188 2062.078125 C 926.183594 2084.679688 933.363281 2089.726562 919.972656 2107.386719 C 910.121094 2093.605469 916.9375 2076.585938 906.976562 2063.796875 C 898.652344 2079.171875 908.3125 2092.191406 905.828125 2110.21875 C 892.503906 2112.707031 866.453125 2108.40625 858.480469 2100.988281 C 849.34375 2092.488281 847.371094 2069.707031 842.636719 2058.785156 C 828.921875 2027.144531 806.730469 2010.25 796.585938 1990.808594 C 791.46875 1980.992188 782.867188 1917.351562 808.550781 1895.554688 C 820.304688 1885.578125 854.5625 1848.925781 859.058594 1831.148438 C 849.101562 1838.0625 840.394531 1851.578125 832.835938 1861.304688 C 823.664062 1873.109375 817.523438 1882.085938 801.78125 1887.78125 C 799.496094 1841.742188 806.054688 1842.777344 843.042969 1803.371094 C 877.652344 1766.5 862.828125 1767.148438 925.898438 1761.621094 "/>
<path fill-rule="evenodd" fill="rgb(92.96875%, 90.039062%, 81.054688%)" fill-opacity="1" d="M 1507.171875 1775.980469 C 1498.171875 1793.371094 1496.050781 1805.058594 1516.710938 1817.300781 C 1521 1807.988281 1521.78125 1803.289062 1530.699219 1795.808594 C 1538.878906 1788.960938 1543.441406 1789.199219 1550 1783.039062 C 1536.191406 1778.480469 1523.359375 1774.648438 1507.171875 1775.980469 Z M 1328.488281 1397.769531 C 1333.5 1424.171875 1366.878906 1497.121094 1381.511719 1522.480469 C 1388.699219 1534.949219 1396.28125 1543.179688 1402.191406 1553.289062 C 1377.96875 1549.710938 1350.101562 1526.128906 1315.628906 1521.25 C 1301.210938 1523.359375 1294.621094 1509.53125 1273.871094 1519.128906 C 1260.550781 1525.289062 1239.480469 1551.789062 1232.769531 1565.171875 C 1238.621094 1570.238281 1236.808594 1567.46875 1242.480469 1570.699219 C 1261.269531 1581.398438 1230.519531 1562.710938 1246.570312 1573.050781 L 1250.25 1575.800781 C 1257.351562 1580.601562 1240.371094 1578.628906 1274.261719 1582.429688 C 1300.03125 1594.699219 1362.910156 1642.289062 1381.761719 1665.480469 C 1398.730469 1686.371094 1427.441406 1668.949219 1482.039062 1678.949219 L 1478.820312 1679.269531 C 1480.808594 1686.800781 1482.011719 1680.96875 1478.808594 1685.269531 C 1437 1688.609375 1430.710938 1678.171875 1385.851562 1690.261719 C 1361.121094 1696.921875 1348.289062 1688.910156 1337.769531 1698.371094 C 1347 1703.441406 1475.101562 1702.039062 1485.890625 1703.539062 C 1525.640625 1709.089844 1507.050781 1701.691406 1527.261719 1703.609375 C 1546.691406 1709.539062 1584.75 1748.148438 1608.210938 1730.488281 C 1618.378906 1722.828125 1630.390625 1702.558594 1639.191406 1699.050781 C 1651.109375 1694.300781 1684.261719 1697.019531 1691.988281 1702.980469 C 1695.800781 1708.320312 1697.378906 1730.019531 1702.710938 1740.910156 C 1708.480469 1752.699219 1714.160156 1759.550781 1715 1772.589844 C 1689.230469 1792.410156 1681.070312 1786.050781 1643.390625 1784.789062 C 1654.390625 1809.371094 1661.859375 1794.398438 1664.328125 1813.710938 C 1570.761719 1823.839844 1578.800781 1803.371094 1537.25 1795.960938 C 1541.199219 1815.441406 1562.75 1842.683594 1580.738281 1850.144531 C 1608.710938 1861.746094 1653.011719 1851.648438 1662.179688 1851.5625 C 1663 1851.558594 1663.929688 1851.460938 1664.691406 1851.535156 L 1672.128906 1854.328125 L 1670.441406 1870.558594 C 1653.578125 1880.414062 1617.898438 1871.761719 1601.449219 1896.566406 C 1608.730469 1917.808594 1609.390625 1911.941406 1627.050781 1920.664062 C 1652.859375 1933.410156 1638.378906 1959.257812 1615.46875 1971.65625 C 1602.398438 1978.722656 1590.488281 1972.960938 1579.21875 1968.226562 C 1538.070312 1950.945312 1370.96875 1870.566406 1332.25 1848.441406 C 1300.621094 1830.371094 1253.308594 1748.859375 1253.191406 1743.859375 C 1258.011719 1728.820312 1270.519531 1721.550781 1270.300781 1708.109375 C 1257.898438 1674.519531 1241.328125 1683.488281 1225.148438 1669.269531 C 1217.53125 1662.570312 1216.148438 1652.070312 1209.820312 1645.558594 C 1197.289062 1632.699219 1195.378906 1641.519531 1181.089844 1642.570312 C 1178.03125 1573.300781 1191.949219 1572.738281 1150.550781 1532.789062 C 1121.828125 1505.070312 1098.390625 1468.070312 1072.679688 1470.328125 C 1065.980469 1480.53125 1064.839844 1488.789062 1064.628906 1501.578125 L 1079.179688 1484.839844 C 1104.230469 1501.710938 1088.949219 1514.101562 1085.308594 1542.769531 C 1082.261719 1566.761719 1082.550781 1593.601562 1095.421875 1609.851562 C 1108.71875 1588.058594 1089.21875 1553.128906 1122.621094 1544.390625 L 1135.660156 1568.410156 C 1131.890625 1576.570312 1135.949219 1570.320312 1128.539062 1575.410156 C 1128.460938 1575.46875 1122.960938 1577.648438 1122 1578.160156 C 1122.800781 1595.019531 1128.511719 1607.300781 1130.800781 1626.621094 C 1134 1653.789062 1133.941406 1653.210938 1155.890625 1660.691406 C 1155.210938 1661.511719 1154.238281 1662.371094 1153.621094 1662.921875 C 1139.890625 1675.148438 1140.199219 1669.988281 1137.449219 1678.878906 C 1206.109375 1724.050781 1227.140625 1647.761719 1258.070312 1701.621094 C 1254.53125 1705.539062 1265.558594 1705.621094 1248.140625 1704.058594 C 1238.449219 1700.308594 1243.109375 1699.519531 1231.101562 1703.238281 L 1226.308594 1747.578125 C 1180.308594 1749.140625 1180.269531 1723.261719 1147.269531 1701.921875 C 1120.480469 1684.601562 1078 1668.679688 1072.359375 1652.660156 C 1061.558594 1622.03125 1042.769531 1464.839844 1054.140625 1435.199219 C 1076.46875 1417.828125 1102.359375 1427.121094 1118.339844 1437.871094 C 1113.460938 1453.75 1114.421875 1438.738281 1111.539062 1454.699219 C 1123.660156 1471.878906 1136.078125 1490.75 1147.789062 1506.289062 C 1169.398438 1534.980469 1174.390625 1550.910156 1194.28125 1549.21875 L 1195.03125 1531.800781 C 1196.449219 1526.699219 1197.019531 1525.398438 1198.808594 1520.980469 C 1202.539062 1548 1224.289062 1495.238281 1227.769531 1487.191406 C 1227.039062 1486.839844 1225.820312 1486.621094 1225.46875 1486.488281 C 1218.78125 1483.878906 1218 1489.691406 1221.671875 1483.140625 L 1231.859375 1471.789062 C 1259.648438 1468.769531 1251.710938 1444.179688 1249.070312 1421.320312 C 1246.800781 1401.570312 1246 1372.960938 1241.628906 1355.171875 C 1232.660156 1367.441406 1235.28125 1403.550781 1229.558594 1419.949219 C 1217.28125 1424.5 1215.308594 1427.171875 1206.171875 1418.929688 L 1188.300781 1400.871094 C 1165.539062 1374.898438 1202.710938 1131.671875 1266.328125 1147.308594 C 1290.609375 1153.269531 1334.410156 1191.46875 1344.5 1204.519531 C 1330.328125 1250.910156 1291.230469 1346.46875 1328.488281 1397.769531 "/>
<path fill-rule="evenodd" fill="rgb(92.96875%, 89.0625%, 80.076599%)" fill-opacity="1" d="M 1753.980469 2311.257812 C 1782.730469 2351.605469 1868.691406 2343.011719 1890.691406 2368.363281 C 1914.75 2396.089844 1956.589844 2460.222656 1921.941406 2505.371094 C 1900.898438 2532.789062 1889.648438 2528.949219 1851.261719 2520.671875 C 1810.941406 2511.972656 1755.289062 2484.46875 1722.339844 2462.066406 C 1692.230469 2441.597656 1694.878906 2447.898438 1678.519531 2411.910156 C 1656.078125 2362.546875 1655.238281 2385.09375 1651.03125 2341.699219 C 1649.171875 2322.613281 1626.511719 2300.085938 1615.558594 2282.875 C 1566.410156 2205.628906 1597.121094 2226.582031 1502.269531 2205.089844 C 1451.199219 2193.515625 1373.300781 2165.882812 1323.109375 2143.632812 C 1304.410156 2135.339844 1300.910156 2140.125 1285.558594 2135.152344 C 1273.410156 2131.214844 1267.480469 2120.824219 1257.199219 2114.886719 C 1245.238281 2107.976562 1233.699219 2108.394531 1222.839844 2103.714844 C 1235.648438 2100.183594 1275.75 2108.929688 1293.621094 2110.855469 C 1320.898438 2113.796875 1346.878906 2113.460938 1358.53125 2131.070312 L 1318.640625 2130.496094 C 1404.140625 2162.617188 1529.101562 2150.519531 1628.261719 2150.335938 C 1743.46875 2150.457031 1719.488281 2179.441406 1786.371094 2194.199219 C 1779.390625 2171.695312 1772.511719 2181.222656 1763.578125 2162.984375 C 1773.058594 2146.292969 1820.851562 2128.628906 1842.699219 2128.410156 C 1850.949219 2141.769531 1842.960938 2142.355469 1857.078125 2151.636719 L 1933.640625 2192.226562 C 1924.960938 2196.875 1913.78125 2186.523438 1895.25 2183.167969 C 1965.878906 2236.554688 1995.828125 2233.070312 2030.488281 2333.085938 C 2064.441406 2431.066406 2039.859375 2477.136719 1966.621094 2516.054688 C 1965.261719 2478.210938 1978.539062 2480.359375 1964.929688 2430.285156 C 1954.691406 2392.605469 1939.128906 2368.320312 1936.28125 2356.621094 L 1994.210938 2325.4375 C 1985.050781 2319.324219 1967.558594 2317.34375 1955.808594 2315.6875 C 1925.261719 2311.382812 1933.179688 2317.828125 1912.039062 2323.660156 C 1899.261719 2294.027344 1847.46875 2230.902344 1805.878906 2219.914062 C 1819.421875 2248.039062 1870.050781 2271.203125 1875.160156 2322.1875 C 1832.121094 2330.578125 1792.050781 2314.234375 1753.980469 2311.257812 "/>
<path fill-rule="evenodd" fill="rgb(41.992188%, 75%, 94.921875%)" fill-opacity="1" d="M 933.210938 1162.269531 C 929.527344 1156.558594 932.742188 1155.25 913.46875 1145.929688 C 906.140625 1142.378906 899.1875 1138.699219 891.242188 1136.480469 C 896.988281 1144.140625 900.121094 1146.628906 906.460938 1153.140625 C 917.054688 1164.019531 911.636719 1162.359375 924.007812 1166.210938 C 954.089844 1191.058594 1059.21875 1265.578125 1097.390625 1287.121094 C 1108.410156 1293.351562 1116.988281 1298.199219 1129.03125 1304.089844 C 1155.039062 1316.808594 1156.199219 1310.039062 1160.171875 1324.738281 C 1152.121094 1329.25 1144.28125 1324.148438 1133.019531 1319.601562 C 1111.210938 1310.769531 1064.070312 1289.019531 1046.359375 1285.660156 C 1056.808594 1303.578125 1172.691406 1364.179688 1153.371094 1384.039062 C 1144.378906 1391.351562 1135.761719 1398.199219 1136.25 1411.390625 L 1153.191406 1395.898438 L 1162.890625 1402.699219 C 1182.539062 1456.960938 1181.488281 1435.96875 1198.859375 1457.949219 C 1194.859375 1465.441406 1191.988281 1468.558594 1187.851562 1475.609375 C 1182.011719 1485.558594 1183.300781 1486.96875 1173.398438 1494.019531 C 1165.910156 1487.578125 1161.019531 1484.480469 1160.289062 1474.179688 C 1163.21875 1472.148438 1170.191406 1476.25 1172.710938 1448.199219 C 1147.808594 1435.578125 1149.511719 1448.078125 1148.359375 1449.390625 C 1136.519531 1445.949219 1134.089844 1438.109375 1135.5 1421.71875 C 1110.761719 1422.050781 1123.859375 1411.449219 1098.128906 1406.679688 L 1100.179688 1391.871094 C 1090.460938 1407.148438 1092.449219 1405.46875 1075.28125 1411.589844 C 1057.601562 1417.878906 1055.539062 1417.179688 1042.210938 1407.359375 C 998.886719 1375.46875 979.980469 1358.488281 946.652344 1320.730469 C 939.160156 1312.25 910.410156 1277.011719 905.257812 1274.160156 C 913.289062 1293.359375 945.355469 1340.839844 959.785156 1356.480469 C 969.121094 1366.609375 978.496094 1371.949219 983.222656 1384.75 C 959.371094 1379.53125 896.152344 1330.628906 883.941406 1315.261719 C 859.894531 1285 738.839844 977.238281 739.621094 965.738281 C 762.285156 998.039062 814.191406 1087.378906 846.199219 1095.730469 C 838.910156 1067.039062 705.945312 869.71875 698.472656 843.488281 C 710.1875 849.808594 845.746094 998.53125 866.28125 1021 C 907.425781 1066.03125 909.496094 1064.96875 964.734375 1094.761719 C 987.546875 1107.058594 1059.160156 1144.320312 1083.46875 1149.929688 C 1077.21875 1135.480469 1058.53125 1124.730469 1046.199219 1114 C 999.9375 1073.71875 976.445312 1047.21875 937.449219 998.519531 C 902.601562 955.011719 905.898438 954.679688 896.707031 892.351562 C 890.898438 852.96875 877.292969 801.019531 876.949219 762.011719 C 889.324219 768.828125 968.640625 912.851562 981.484375 935.019531 C 1041.039062 1037.800781 1096.460938 1076.171875 1168.679688 1167.210938 C 1184.191406 1186.769531 1188.320312 1186.429688 1179.589844 1217.070312 C 1157.660156 1294.128906 961.390625 1163.738281 933.210938 1162.269531 "/>
<path fill-rule="evenodd" fill="rgb(42.993164%, 75.976562%, 93.943787%)" fill-opacity="1" d="M 780.390625 1193.339844 C 774.65625 1181.730469 755.671875 1159.980469 742.433594 1153.851562 C 745.636719 1167.191406 746.207031 1166.46875 752.996094 1176.550781 C 761.28125 1188.839844 756.550781 1184.691406 767.253906 1191.53125 C 769.289062 1205.101562 823.101562 1264.160156 831.394531 1273.660156 C 843.792969 1287.859375 847.675781 1302.359375 857.777344 1321.851562 C 870.660156 1346.699219 938.71875 1394.820312 973.507812 1430.390625 C 1029.601562 1487.761719 1025.429688 1479.480469 1024.550781 1529.191406 C 887.6875 1536.671875 826.960938 1453.71875 782.128906 1440.441406 C 793.164062 1465.601562 930.410156 1559.839844 961.132812 1579.128906 C 1000.03125 1603.558594 1008.628906 1600.75 1032.890625 1613.660156 L 1038.148438 1654.191406 C 1016.820312 1650.128906 854.785156 1568.578125 828.328125 1539.910156 C 800.644531 1509.910156 716.394531 1396.609375 687.644531 1358.898438 C 672.382812 1338.878906 598.058594 1252.101562 593.980469 1236.488281 C 607.191406 1239.449219 761.0625 1298.039062 770.835938 1308.191406 C 777.660156 1315.28125 804.03125 1345.171875 806.683594 1353.960938 C 773.472656 1346.039062 690.769531 1296.621094 658.128906 1281.121094 C 668.875 1306.210938 902.761719 1434.238281 924.664062 1437.101562 C 918.15625 1422.929688 835.820312 1345.550781 821.503906 1332.300781 C 700.03125 1219.871094 724.378906 1233.398438 641.332031 1090.171875 C 630.515625 1071.519531 569.78125 970.519531 566.894531 958.929688 C 579 960.871094 695.988281 1052.519531 711.9375 1064.820312 C 746.65625 1091.621094 748.878906 1092.511719 770.621094 1132.738281 C 785.328125 1159.960938 804.683594 1189.921875 812.855469 1218.578125 C 795.910156 1212.890625 794.277344 1199.339844 780.390625 1193.339844 "/>
<path fill-rule="evenodd" fill="rgb(41.992188%, 75%, 94.921875%)" fill-opacity="1" d="M 1289.859375 1011.039062 C 1285.160156 999.839844 1272.480469 988.789062 1259.621094 982.578125 C 1263.761719 995.738281 1274.101562 1008.429688 1284.078125 1014.769531 C 1299.839844 1034.46875 1351.96875 1087.078125 1351.28125 1102.800781 C 1329.308594 1103.898438 1290.519531 1051.570312 1277.589844 1035.46875 C 1265.261719 1020.128906 1224.128906 965.320312 1212.429688 960.828125 C 1207.25 948.488281 1198.601562 941.050781 1185.941406 934.488281 C 1189.199219 946.921875 1197.25 959.449219 1209.121094 963.921875 C 1213.898438 981.589844 1307.898438 1080.289062 1316.960938 1101.820312 C 1264.839844 1096.429688 1193.550781 982.78125 1154.070312 931.289062 L 1138.71875 910.890625 C 1131.660156 904.078125 1138.199219 909.011719 1129.980469 904.621094 C 1136.820312 939.859375 1244.011719 1081.25 1246.769531 1095.871094 C 1231.558594 1087.070312 1167.988281 1014.488281 1150.808594 993.191406 C 1114.121094 947.699219 1101.960938 923.21875 1080.820312 862 C 1066.261719 819.828125 974.8125 586.261719 972.851562 565.269531 C 990.019531 573.871094 1193.109375 801.058594 1253.300781 851.769531 C 1351.140625 934.171875 1370.910156 909.261719 1463.441406 1067.21875 C 1477.511719 1091.238281 1506.191406 1135.21875 1514.199219 1159.078125 C 1497.109375 1152.289062 1442.898438 1095.589844 1417.648438 1080.191406 C 1390.671875 1063.730469 1395.890625 1083.050781 1378.089844 1090.050781 C 1371.171875 1086.671875 1341.480469 1057.761719 1333.949219 1050.488281 C 1323.898438 1040.78125 1301.011719 1017.148438 1289.859375 1011.039062 "/>
<path fill-rule="evenodd" fill="rgb(92.96875%, 90.039062%, 81.054688%)" fill-opacity="1" d="M 1342.039062 1980.789062 C 1336.898438 1935.59375 1315.378906 1928.929688 1303.359375 1911.421875 C 1300.921875 1915.792969 1313.230469 1963.574219 1324.25 1968.761719 C 1324.449219 1968.855469 1325.230469 1969.21875 1325.460938 1969.355469 C 1340.5 1978.421875 1323.078125 1972.515625 1342.039062 1980.789062 Z M 1564.210938 2112.035156 C 1559.371094 2104.328125 1570.46875 2111.632812 1556.699219 2103.964844 C 1547.808594 2099.007812 1551.769531 2106.773438 1530.789062 2098.039062 L 1526.878906 2100.96875 C 1526.488281 2101.25 1525.128906 2102.222656 1524.738281 2102.5 C 1524.339844 2102.785156 1523.238281 2103.492188 1522.53125 2104.050781 L 1483.351562 2076.816406 C 1492.128906 2091.152344 1506 2096.796875 1509.21875 2118.046875 C 1498.261719 2117.503906 1424.628906 2098.609375 1401.621094 2093.480469 L 1398.570312 2070.050781 C 1404.988281 2072.796875 1406.691406 2076.476562 1412.058594 2080.199219 C 1409.398438 2060.433594 1357.871094 2016.855469 1346.851562 2011.679688 C 1355.808594 2050.378906 1400.769531 2043.878906 1365.921875 2104.898438 C 1327.730469 2103.390625 1285.070312 2085.292969 1244.871094 2081.960938 C 1210.851562 2079.144531 1214.480469 2083.695312 1187.640625 2067.554688 C 1135.121094 2035.980469 1152.960938 2023.398438 1139.128906 2008.617188 C 1129 1997.785156 1127.769531 2009.394531 1123.199219 1989.160156 C 1119.371094 1972.230469 1119.371094 1943.105469 1111.988281 1929.054688 C 1093.53125 1893.9375 1109.851562 1847.640625 1149.671875 1839.035156 C 1150.390625 1857.507812 1146.738281 1873.554688 1146.730469 1893.332031 C 1146.710938 1928.414062 1147.558594 1914.710938 1134.789062 1939.523438 C 1127.121094 1954.449219 1145.421875 2000.1875 1163.070312 2016.777344 C 1154.960938 2023.367188 1164.21875 2016.25 1155.488281 2020.035156 L 1164.921875 2032.90625 C 1172.238281 2044.726562 1198.730469 2066.019531 1213.421875 2070.367188 C 1206.308594 2053.40625 1196.101562 2051.382812 1180.359375 2033.519531 C 1194.039062 2041.136719 1193.511719 2046.851562 1210.460938 2053.226562 C 1205.148438 2043.902344 1189.941406 2030.734375 1180.109375 2024.871094 L 1171.371094 2013.515625 C 1177.421875 2016.078125 1175.71875 2015.945312 1179.789062 2019.839844 C 1192.421875 2031.933594 1194.960938 2036.613281 1212.101562 2041.976562 C 1205.109375 2025.554688 1209.851562 2035.1875 1197.960938 2024.660156 C 1195.761719 2022.703125 1187.808594 2012.59375 1186.511719 2010.628906 C 1182.429688 2004.460938 1186.101562 2006.34375 1180.648438 1997.164062 C 1175.929688 1989.222656 1174.980469 1988.921875 1168.25 1984.0625 C 1152.300781 1952.992188 1156.121094 1901.472656 1159.039062 1861.410156 C 1164.550781 1785.660156 1175.648438 1793.078125 1190.941406 1762.121094 C 1253.359375 1760.941406 1268.21875 1814.378906 1297.390625 1844.058594 C 1323.648438 1870.78125 1361.929688 1906.050781 1391.980469 1931.398438 C 1421.410156 1956.214844 1568.109375 2095.558594 1576.71875 2115.726562 L 1564.210938 2112.035156 "/>
<path fill-rule="evenodd" fill="rgb(88.084412%, 88.084412%, 31.005859%)" fill-opacity="1" d="M 1822.929688 2000.519531 C 1825.648438 2025.390625 1821.371094 2003.023438 1828.148438 2013.425781 L 1836.320312 1988.867188 C 1836.46875 1987.6875 1837.019531 1987.40625 1837.371094 1986.671875 C 1838.929688 1977.480469 1842.699219 1974.597656 1845.5 1971.0625 C 1855.699219 1958.199219 1870.75 1938.691406 1885.71875 1932.644531 C 1912.300781 1921.910156 1946.238281 1922.808594 1972.941406 1935.554688 C 1965.558594 1957.203125 1935.339844 1978.203125 1935.851562 2027.984375 C 1958.890625 2021.25 1954.328125 1997.230469 2003.878906 1973.019531 C 2039.738281 1955.5 2061.890625 1960.1875 2099.320312 1974.835938 C 2089 1982.667969 2068.359375 1986.464844 2055.761719 1990.101562 C 2059.679688 2013.34375 2123.398438 2059.578125 2127.75 2088.257812 C 2105.898438 2100.488281 2094.699219 2103.929688 2091.589844 2135.375 C 2118.019531 2128.074219 2112.96875 2099.847656 2157.800781 2117.515625 C 2173.589844 2123.738281 2212.109375 2138.636719 2218.921875 2151.859375 L 2163.429688 2156.316406 C 2171.78125 2179.46875 2219.269531 2268.378906 2211.5 2290.816406 C 2210.609375 2291.226562 2209.429688 2291.527344 2208.699219 2291.667969 C 2207.980469 2291.808594 2206.789062 2292.253906 2205.898438 2292.382812 C 2205 2292.515625 2204.039062 2292.765625 2203.039062 2292.851562 L 2191.539062 2291.933594 C 2174.839844 2288.941406 2161.570312 2282.726562 2140.789062 2282.339844 C 2152.769531 2302.675781 2174.300781 2303.4375 2174.238281 2322.363281 C 2131.03125 2338.886719 2089.46875 2257.6875 2080.628906 2228.71875 C 2097.351562 2230.003906 2113.671875 2244.207031 2125.359375 2249.628906 C 2129.429688 2241.214844 2134.441406 2222.171875 2138.140625 2211.695312 C 2114.421875 2210.652344 2113.410156 2215.9375 2095.609375 2202.359375 C 2078.820312 2189.554688 2012.558594 2143.722656 2008.671875 2137.578125 C 2015.070312 2139.347656 2031.589844 2145.710938 2036.691406 2147.863281 C 2047.25 2152.320312 2048.988281 2156.957031 2060.019531 2160.160156 C 2052.929688 2144.519531 1984.070312 2095.152344 1967.320312 2083.835938 C 1945.25 2068.921875 1878.058594 2033.882812 1845.941406 2036.011719 C 1841.851562 2042.152344 1843.101562 2052.816406 1842.910156 2049.957031 C 1842.878906 2049.597656 1842.949219 2051.097656 1842.699219 2051.578125 C 1820.558594 2039.5 1819.058594 2033.371094 1822.929688 2000.519531 "/>
<path fill-rule="evenodd" fill="rgb(42.993164%, 75.976562%, 93.943787%)" fill-opacity="1" d="M 1150.011719 648.980469 C 1115.308594 640.769531 1065.5 564.109375 896.980469 522.289062 C 879.542969 517.960938 861.878906 514.929688 844.242188 509.578125 C 828.515625 504.808594 812.023438 495.351562 796.140625 492.441406 C 804.707031 518.039062 948.207031 674.578125 962.4375 701.761719 C 898.941406 691.539062 889.90625 640.109375 860.394531 631.210938 C 868.828125 671.320312 964.871094 788.871094 971.90625 820.78125 C 954.664062 810.171875 889.183594 737.699219 866.273438 715.648438 C 845.507812 695.648438 807.753906 606.761719 792.945312 577.640625 C 779.589844 551.371094 760.109375 502.570312 744.972656 483.519531 C 745.527344 501 797.898438 702.339844 810.546875 735.800781 C 817.394531 753.910156 836.117188 796.710938 838.675781 814.980469 C 822.097656 812.820312 792.3125 792.75 770.800781 785.601562 L 710.300781 423.628906 C 719 422.859375 925.679688 492.769531 961.3125 503.488281 C 982.734375 509.929688 1080.898438 533.808594 1090.910156 539.878906 C 1099.191406 544.910156 1143.929688 634.761719 1150.011719 648.980469 "/>
<path fill-rule="evenodd" fill="rgb(42.993164%, 75.976562%, 93.943787%)" fill-opacity="1" d="M 1484.261719 722.539062 C 1485.671875 733.851562 1486.339844 727.328125 1479.988281 729.710938 C 1441.558594 693.78125 1395.609375 657.371094 1344.070312 624.390625 C 1326.390625 613.070312 1196.988281 533.46875 1188.230469 530.960938 C 1190.699219 544.859375 1212.851562 583.238281 1220.238281 599.101562 C 1240.488281 642.589844 1260.148438 695.230469 1279.699219 734.269531 C 1287.050781 748.96875 1310.21875 785.839844 1312.53125 797.488281 C 1293.941406 789.839844 1248.109375 742.859375 1231.660156 723.871094 C 1207.808594 696.328125 1185.648438 665.589844 1166.578125 632.878906 C 1147.910156 600.878906 1129.839844 564.871094 1114.488281 529.300781 C 1103.191406 503.148438 1073.671875 443.480469 1069.25 418.089844 L 1186.910156 479.609375 C 1258.878906 513.539062 1377.21875 557.289062 1438.328125 592.011719 C 1461.960938 605.441406 1519.03125 660.269531 1528.308594 685.050781 C 1498.359375 677.371094 1350.28125 590.648438 1331.140625 588.851562 C 1354.410156 603.019531 1467.980469 706.558594 1484.261719 722.539062 "/>
<path fill-rule="evenodd" fill="rgb(42.993164%, 75%, 91.992188%)" fill-opacity="1" d="M 1688.910156 1252.160156 C 1686.460938 1241.839844 1722.089844 1102.078125 1727.019531 1071.628906 C 1734.929688 1022.789062 1740.859375 909.78125 1716.238281 872.710938 C 1712.128906 949.691406 1724.949219 993.171875 1693.238281 1059.679688 C 1690.410156 1055.050781 1695.378906 996.210938 1692.699219 978.148438 C 1678.761719 884.289062 1554.960938 482.460938 1560.03125 468.179688 C 1586.949219 529.328125 1609.691406 592.761719 1642.78125 653.761719 C 1677.351562 717.511719 1770.789062 856.679688 1772.378906 928.261719 C 1774.328125 1015.890625 1735.351562 1120.050781 1706.46875 1201.640625 C 1700.878906 1217.441406 1694.761719 1238.078125 1688.910156 1252.160156 "/>
<path fill-rule="evenodd" fill="rgb(41.992188%, 75%, 94.921875%)" fill-opacity="1" d="M 1530.789062 1096.101562 C 1522.019531 1092.851562 1497.519531 1052.851562 1492 1045.140625 C 1465.449219 1008.109375 1439.300781 975.828125 1409.328125 942.558594 C 1385.78125 916.410156 1388.871094 919.5 1373.578125 884.199219 L 1291.019531 687.46875 C 1281.738281 666.101562 1270.320312 641.710938 1264.589844 619.730469 C 1274.839844 628.738281 1294.558594 659.609375 1304.609375 673.441406 C 1363 753.789062 1514.371094 910.96875 1526.988281 929 C 1542.601562 951.308594 1543.691406 976.511719 1541.03125 1009.660156 C 1540.011719 1022.390625 1533.488281 1088.46875 1530.789062 1096.101562 "/>
<path fill-rule="evenodd" fill="rgb(42.993164%, 75%, 91.992188%)" fill-opacity="1" d="M 1370.128906 1379.039062 C 1372.671875 1336.070312 1360.390625 1301.070312 1377.480469 1258.441406 C 1395.179688 1214.300781 1425.109375 1202.238281 1434.390625 1184.078125 C 1378.960938 1191.488281 1335.058594 1298.109375 1370.128906 1379.039062 Z M 1489.019531 1157.101562 L 1494.710938 1164.390625 L 1451.421875 1177.058594 C 1460.539062 1182.269531 1473.019531 1178.570312 1487.261719 1177.28125 C 1507.589844 1175.421875 1506.148438 1176.351562 1525.171875 1179.589844 C 1537.609375 1181.75 1538 1185.089844 1541.710938 1188.960938 C 1514.808594 1189.601562 1515.261719 1191.800781 1498.828125 1204.941406 C 1487.128906 1214.300781 1479.578125 1220.96875 1469.878906 1231.371094 C 1383.871094 1323.550781 1418.800781 1416.050781 1424.660156 1498.261719 C 1412.480469 1490.25 1386.519531 1433.089844 1386.398438 1430.488281 C 1388.78125 1453.699219 1417.269531 1511.800781 1428.359375 1534.488281 C 1448.28125 1575.269531 1481.910156 1617.628906 1485.359375 1627.179688 C 1472.261719 1619.871094 1454.25 1589.601562 1448.039062 1583.769531 C 1442.71875 1578.78125 1448.609375 1582.28125 1443.921875 1581.390625 C 1440.859375 1572.03125 1410.109375 1517.941406 1401.699219 1505.890625 L 1392.988281 1495.96875 C 1395.019531 1519.140625 1413.828125 1541.679688 1422.039062 1560.511719 C 1421.988281 1560.378906 1376.859375 1490.441406 1350.878906 1426.570312 C 1345.789062 1414.050781 1339.601562 1383.769531 1330.511719 1375.191406 C 1330.148438 1359.070312 1324.609375 1349.871094 1325.621094 1331.359375 C 1327.199219 1302.679688 1347.359375 1239.648438 1356.75 1215.96875 C 1368.398438 1186.589844 1372.339844 1169.820312 1401.28125 1162.75 C 1428.449219 1156.109375 1462.039062 1152.710938 1489.019531 1157.101562 "/>
<path fill-rule="evenodd" fill="rgb(42.993164%, 75.976562%, 93.943787%)" fill-opacity="1" d="M 1664 1061.308594 C 1654.519531 1057.078125 1645.179688 1023.269531 1640.890625 1013.039062 C 1582.230469 873.039062 1564.089844 944.050781 1565.789062 713.921875 L 1564.230469 569.078125 C 1589.519531 646.789062 1694.359375 979.660156 1664 1061.308594 "/>
<path fill-rule="evenodd" fill="rgb(42.993164%, 75%, 91.992188%)" fill-opacity="1" d="M 1824.441406 1184.429688 C 1829.589844 1137.140625 1857.371094 1085.609375 1861.570312 1032.429688 C 1863.839844 1003.761719 1865.410156 866.871094 1849.191406 853.53125 L 1847.121094 858.300781 C 1840.460938 881.109375 1829.148438 1034.121094 1820.730469 1054.511719 C 1809.640625 1026.28125 1805.5 697.121094 1816.769531 672.089844 L 1863.929688 793.28125 C 1910.03125 905.679688 1923.589844 943.53125 1879.160156 1068.628906 C 1872.460938 1087.488281 1835.808594 1177.449219 1824.441406 1184.429688 "/>
<path fill-rule="evenodd" fill="rgb(42.993164%, 75%, 91.992188%)" fill-opacity="1" d="M 884.652344 925.378906 C 858.730469 917.828125 817.683594 870.921875 788.898438 862.570312 L 793.925781 888.941406 C 770.316406 881.070312 694.09375 806.5 672.691406 801.039062 C 678.25 854.070312 717.898438 970.28125 718.722656 1006.878906 C 691.933594 996.050781 689.886719 981.75 681.269531 950.078125 L 640.34375 798.53125 C 634.511719 774.949219 623.390625 744.839844 620.378906 719.488281 C 635.488281 724.949219 673.46875 755.609375 691.914062 766.398438 C 737.476562 793.050781 832.613281 839.441406 862.757812 858.761719 C 882.265625 871.269531 884.84375 893.128906 884.652344 925.378906 "/>
<path fill-rule="evenodd" fill="rgb(42.993164%, 75.976562%, 93.943787%)" fill-opacity="1" d="M 1225.078125 1113.550781 L 1213.75 1139.210938 C 1197.828125 1133.859375 1135.019531 1081.410156 1124.601562 1071.390625 C 1069.230469 1018.128906 1021.898438 954.339844 1012.898438 870.78125 C 1010.421875 847.828125 1009.511719 822.710938 1007.300781 798.328125 C 1005.261719 775.941406 998.703125 753.070312 998.78125 730.808594 C 1026.859375 790.558594 1061.800781 929.109375 1118.429688 989.871094 L 1225.078125 1113.550781 "/>
<path fill-rule="evenodd" fill="rgb(1.000977%, 1.000977%, 1.000977%)" fill-opacity="1" d="M 1270.300781 1708.109375 C 1268.878906 1707.589844 1263.21875 1706.601562 1261.140625 1704.859375 C 1272.011719 1695.820312 1259.640625 1709.398438 1257.871094 1711.359375 C 1238.941406 1711.359375 1254.730469 1712.941406 1248.140625 1704.058594 C 1265.558594 1705.621094 1254.53125 1705.539062 1258.070312 1701.621094 C 1227.140625 1647.761719 1206.109375 1724.050781 1137.449219 1678.878906 C 1140.199219 1669.988281 1139.890625 1675.148438 1153.621094 1662.921875 C 1154.238281 1662.371094 1155.210938 1661.511719 1155.890625 1660.691406 C 1133.941406 1653.210938 1134 1653.789062 1130.800781 1626.621094 C 1128.511719 1607.300781 1122.800781 1595.019531 1122 1578.160156 C 1122.960938 1577.648438 1128.460938 1575.46875 1128.539062 1575.410156 C 1135.949219 1570.320312 1131.890625 1576.570312 1135.660156 1568.410156 L 1122.621094 1544.390625 C 1089.21875 1553.128906 1108.71875 1588.058594 1095.421875 1609.851562 C 1082.550781 1593.601562 1082.261719 1566.761719 1085.308594 1542.769531 C 1088.949219 1514.101562 1104.230469 1501.710938 1079.179688 1484.839844 L 1064.628906 1501.578125 C 1064.839844 1488.789062 1065.980469 1480.53125 1072.679688 1470.328125 C 1098.390625 1468.070312 1121.828125 1505.070312 1150.550781 1532.789062 C 1191.949219 1572.738281 1178.03125 1573.300781 1181.089844 1642.570312 C 1195.378906 1641.519531 1197.289062 1632.699219 1209.820312 1645.558594 C 1216.148438 1652.070312 1217.53125 1662.570312 1225.148438 1669.269531 C 1241.328125 1683.488281 1257.898438 1674.519531 1270.300781 1708.109375 "/>
<path fill-rule="evenodd" fill="rgb(4.998779%, 3.999329%, 4.998779%)" fill-opacity="1" d="M 1443.921875 1581.390625 C 1434.710938 1578.261719 1439.210938 1581.011719 1433.398438 1578.148438 L 1431.890625 1584.261719 C 1427.058594 1581.148438 1429.890625 1582.929688 1425.800781 1579.511719 L 1412.769531 1569.441406 C 1405.878906 1565.78125 1397.660156 1563.25 1389.988281 1559.871094 C 1338.328125 1537.109375 1329.328125 1517.238281 1297.941406 1543.539062 C 1287.828125 1552.019531 1271.640625 1562.238281 1268.210938 1573.980469 C 1316.589844 1575.910156 1381.21875 1595.578125 1430.710938 1607.710938 C 1452.78125 1613.121094 1447.378906 1609.890625 1449.351562 1604.171875 C 1457.300781 1614.351562 1456.050781 1590.941406 1456.050781 1617.128906 C 1439.570312 1617.140625 1449.128906 1613.871094 1448.679688 1628.339844 C 1438.308594 1623.191406 1441.421875 1621.761719 1433.320312 1614.871094 C 1427.050781 1617.808594 1432.929688 1614.851562 1427.789062 1618.28125 C 1427.199219 1618.671875 1427.558594 1628.148438 1424.410156 1620.730469 C 1424.191406 1620.199219 1423.328125 1621.578125 1422.730469 1621.921875 C 1415.429688 1605.480469 1371.28125 1600.539062 1353.328125 1598.789062 C 1356.171875 1619.660156 1382.738281 1656.421875 1394.160156 1668.5 L 1479.71875 1672.691406 C 1508.828125 1676.160156 1503.230469 1671.039062 1505.039062 1665.898438 C 1512.390625 1676 1511.28125 1652.75 1511.28125 1678.859375 L 1482.039062 1678.949219 C 1427.441406 1668.949219 1398.730469 1686.371094 1381.761719 1665.480469 C 1362.910156 1642.289062 1300.03125 1594.699219 1274.261719 1582.429688 L 1254.199219 1573.5 C 1272.300781 1566.011719 1262.699219 1564.199219 1284.761719 1546.539062 C 1292.179688 1540.601562 1293.421875 1539.128906 1301.148438 1533.96875 C 1310.859375 1527.480469 1310.191406 1528.789062 1315.628906 1521.25 C 1350.101562 1526.128906 1377.96875 1549.710938 1402.191406 1553.289062 C 1396.28125 1543.179688 1388.699219 1534.949219 1381.511719 1522.480469 C 1366.878906 1497.121094 1333.5 1424.171875 1328.488281 1397.769531 L 1330.511719 1375.191406 C 1339.601562 1383.769531 1345.789062 1414.050781 1350.878906 1426.570312 C 1376.859375 1490.441406 1421.988281 1560.378906 1422.039062 1560.511719 C 1413.828125 1541.679688 1395.019531 1519.140625 1392.988281 1495.96875 L 1401.699219 1505.890625 C 1410.109375 1517.941406 1440.859375 1572.03125 1443.921875 1581.390625 "/>
<path fill-rule="evenodd" fill="rgb(92.96875%, 89.0625%, 80.076599%)" fill-opacity="1" d="M 1654.328125 1549.429688 C 1631.390625 1549.851562 1567.679688 1519.691406 1553.648438 1506.679688 C 1553.859375 1482.691406 1566.441406 1402.839844 1582.769531 1393.230469 C 1600.960938 1401.371094 1658.941406 1504.359375 1654.328125 1549.429688 "/>
<path fill-rule="evenodd" fill="rgb(40.989685%, 73.046875%, 90.039062%)" fill-opacity="1" d="M 1633.441406 1261.839844 C 1580.410156 1261.339844 1560.539062 1195.609375 1501.070312 1281.839844 C 1446.570312 1360.871094 1443.96875 1392.808594 1434.5 1407.488281 C 1431.050781 1412.820312 1433.5 1409.769531 1429.359375 1413.21875 C 1424.570312 1321.699219 1512.339844 1182.53125 1574.800781 1208.699219 C 1587.71875 1214.109375 1629.238281 1252.769531 1633.441406 1261.839844 "/>
<path fill-rule="evenodd" fill="rgb(42.993164%, 75%, 91.992188%)" fill-opacity="1" d="M 1917.03125 1435.238281 C 1861 1479.019531 1814.128906 1525.109375 1767.328125 1577.460938 C 1756.628906 1589.429688 1733.109375 1621.070312 1715.980469 1624.53125 C 1718.191406 1608.628906 1728.808594 1602.710938 1738.648438 1590.96875 C 1766.921875 1557.269531 1886.699219 1386.238281 1914.660156 1383.5 L 1917.03125 1435.238281 "/>
<path fill-rule="evenodd" fill="rgb(40.989685%, 73.046875%, 90.039062%)" fill-opacity="1" d="M 1923.921875 1215.128906 L 1922.230469 1210.121094 C 1921.121094 1200.148438 1922.449219 1200.820312 1927.101562 1188.230469 C 1933.328125 1171.371094 1953.671875 1115.929688 1955.449219 1104.648438 C 1948.308594 1114.820312 1943.019531 1124.550781 1935.398438 1137.949219 C 1931.78125 1144.300781 1928.859375 1150.210938 1926.339844 1155.109375 C 1921.5 1164.519531 1920.800781 1166.441406 1912.941406 1172.761719 C 1912.078125 1146.699219 1916.800781 1130.011719 1921.949219 1108.941406 C 1928.078125 1083.910156 1936.039062 1079.339844 1950.769531 1065.738281 C 1966.539062 1051.171875 2014.070312 1005.160156 2030.929688 999.539062 C 2026.128906 1016.238281 2012.140625 1037.429688 2004.691406 1051.601562 C 1984.101562 1090.71875 1935.699219 1181.46875 1923.921875 1215.128906 "/>
<path fill-rule="evenodd" fill="rgb(42.993164%, 75.976562%, 93.943787%)" fill-opacity="1" d="M 1431.890625 1584.261719 C 1434 1589.710938 1431.558594 1585.371094 1436.128906 1591.769531 C 1437.410156 1593.550781 1438.890625 1595.300781 1440.53125 1597.058594 C 1445.199219 1602.078125 1444.980469 1602.601562 1449.351562 1604.171875 C 1447.378906 1609.890625 1452.78125 1613.121094 1430.710938 1607.710938 C 1381.21875 1595.578125 1316.589844 1575.910156 1268.210938 1573.980469 C 1271.640625 1562.238281 1287.828125 1552.019531 1297.941406 1543.539062 C 1329.328125 1517.238281 1338.328125 1537.109375 1389.988281 1559.871094 C 1397.660156 1563.25 1405.878906 1565.78125 1412.769531 1569.441406 L 1425.800781 1579.511719 C 1429.890625 1582.929688 1427.058594 1581.148438 1431.890625 1584.261719 "/>
<path fill-rule="evenodd" fill="rgb(96.09375%, 96.09375%, 96.09375%)" fill-opacity="1" d="M 1750.648438 1617.71875 C 1767.140625 1614.28125 1774.640625 1607.371094 1777.859375 1591.980469 C 1783.640625 1561.140625 1799.148438 1550.640625 1815.371094 1534.589844 C 1826.78125 1523.300781 1852.539062 1496.800781 1866.28125 1489.921875 C 1865.28125 1499.160156 1840.988281 1589.980469 1824.109375 1598.238281 C 1812.121094 1604.101562 1731.351562 1642.511719 1724.550781 1641.621094 C 1719.171875 1619.550781 1732.921875 1617.71875 1750.648438 1617.71875 "/>
<path fill-rule="evenodd" fill="rgb(92.96875%, 89.0625%, 78.90625%)" fill-opacity="1" d="M 1607.929688 1587.898438 L 1604.128906 1628.648438 C 1587.308594 1628.128906 1552.761719 1616.390625 1549.601562 1602.871094 C 1545.949219 1587.238281 1547.039062 1538.460938 1549.328125 1521.660156 C 1559.25 1520.640625 1589.519531 1545.179688 1598.980469 1552.269531 C 1617.691406 1566.289062 1639.320312 1579.449219 1642.109375 1596.039062 L 1607.929688 1587.898438 "/>
<path fill-rule="evenodd" fill="rgb(42.993164%, 75%, 91.992188%)" fill-opacity="1" d="M 1087.660156 1716.148438 C 1061.738281 1718.03125 1004.699219 1711.570312 979.6875 1707.128906 C 965.039062 1704.53125 907.742188 1680.28125 900.65625 1669.761719 C 939.269531 1667.171875 980.855469 1671.671875 1017.371094 1673.351562 C 1048.109375 1674.769531 1040.289062 1672.128906 1059.539062 1688.78125 C 1067.269531 1695.46875 1084.539062 1706.539062 1087.660156 1716.148438 "/>
<path fill-rule="evenodd" fill="rgb(96.09375%, 96.09375%, 96.09375%)" fill-opacity="1" d="M 1422.730469 1621.921875 C 1437.488281 1652.621094 1447.179688 1648.960938 1485.609375 1650.210938 C 1492.671875 1654.671875 1497.539062 1663.390625 1505.039062 1665.898438 C 1503.230469 1671.039062 1508.828125 1676.160156 1479.71875 1672.691406 L 1394.160156 1668.5 C 1382.738281 1656.421875 1356.171875 1619.660156 1353.328125 1598.789062 C 1371.28125 1600.539062 1415.429688 1605.480469 1422.730469 1621.921875 "/>
<path fill-rule="evenodd" fill="rgb(92.96875%, 89.0625%, 78.90625%)" fill-opacity="1" d="M 1527.191406 1600.851562 C 1491.488281 1597.691406 1484.910156 1586.238281 1475.839844 1555.261719 C 1469.011719 1531.949219 1461.308594 1497.609375 1464.03125 1472.53125 C 1472.078125 1474.28125 1484.980469 1483.019531 1493.519531 1488.660156 C 1508.621094 1498.628906 1506.289062 1501.191406 1510.078125 1520.539062 C 1515 1545.71875 1523.761719 1574.671875 1527.191406 1600.851562 "/>
<path fill-rule="evenodd" fill="rgb(92.96875%, 89.0625%, 78.90625%)" fill-opacity="1" d="M 1612.589844 2085.265625 C 1583.019531 2091.753906 1587.960938 2084.671875 1552.730469 2040.316406 C 1544.109375 2029.460938 1511.539062 1989.195312 1509.191406 1979.3125 C 1524.808594 1986.207031 1539.089844 1994.707031 1552.691406 2001.570312 C 1629.640625 2040.410156 1583.261719 2005.425781 1604.199219 2053.996094 C 1610.089844 2067.648438 1613.121094 2068.3125 1612.589844 2085.265625 "/>
<path fill-rule="evenodd" fill="rgb(84.959412%, 84.959412%, 33.006287%)" fill-opacity="1" d="M 1835.390625 1929.277344 C 1804.78125 1927.191406 1802.671875 1985.84375 1802.960938 1987.625 C 1805.691406 2004.507812 1803.859375 1993.113281 1808.429688 1999.007812 C 1815.570312 1973.660156 1824.671875 1950.816406 1835.390625 1929.277344 Z M 1837.371094 1986.671875 C 1837.019531 1987.40625 1836.46875 1987.6875 1836.320312 1988.867188 L 1828.148438 2013.425781 C 1821.371094 2003.023438 1825.648438 2025.390625 1822.929688 2000.519531 L 1821.730469 1989.039062 C 1811.558594 2006.703125 1815.300781 2017.824219 1810.210938 2028.148438 C 1798.46875 2015.097656 1787.398438 1975.644531 1793.359375 1954.515625 C 1802.820312 1920.917969 1808.980469 1915.109375 1851.179688 1917.695312 C 1855.511719 1952.398438 1825.539062 1971.898438 1837.371094 1986.671875 "/>
<path fill-rule="evenodd" fill="rgb(91.014099%, 88.084412%, 78.90625%)" fill-opacity="1" d="M 1502.390625 1475.011719 C 1490.589844 1471.859375 1471.359375 1458.261719 1463.671875 1451.449219 C 1462.789062 1423.910156 1467.78125 1387.390625 1482.050781 1369.78125 C 1503.878906 1384.640625 1502.359375 1453.328125 1502.390625 1475.011719 "/>
<path fill-rule="evenodd" fill="rgb(20.996094%, 16.992188%, 12.010193%)" fill-opacity="1" d="M 1664.328125 1813.710938 C 1659.851562 1818.980469 1665.640625 1815.761719 1657.410156 1819.609375 C 1644.421875 1825.671875 1616.539062 1818.359375 1601.539062 1823.890625 L 1558.578125 1814.441406 C 1575.488281 1850.589844 1621.378906 1849.304688 1667.230469 1841.9375 C 1663.898438 1845.554688 1669.488281 1849.992188 1648.121094 1851.296875 C 1636.230469 1852.019531 1598.058594 1852.5 1591.238281 1847.847656 C 1609.039062 1848.609375 1637.898438 1850.296875 1655.71875 1846.898438 C 1659.960938 1846.089844 1660.570312 1837.789062 1676.980469 1851.078125 C 1676.980469 1853.914062 1677.238281 1858.558594 1676.5 1861.203125 C 1673.558594 1871.71875 1675.671875 1864.296875 1670.441406 1870.558594 L 1672.128906 1854.328125 L 1664.691406 1851.535156 C 1663.929688 1851.460938 1663 1851.558594 1662.179688 1851.5625 C 1653.011719 1851.648438 1608.710938 1861.746094 1580.738281 1850.144531 C 1562.75 1842.683594 1541.199219 1815.441406 1537.25 1795.960938 C 1578.800781 1803.371094 1570.761719 1823.839844 1664.328125 1813.710938 "/>
<path fill-rule="evenodd" fill="rgb(63.084412%, 58.006287%, 45.996094%)" fill-opacity="1" d="M 1527.261719 1703.609375 C 1507.050781 1701.691406 1525.640625 1709.089844 1485.890625 1703.539062 C 1475.101562 1702.039062 1347 1703.441406 1337.769531 1698.371094 C 1348.289062 1688.910156 1361.121094 1696.921875 1385.851562 1690.261719 C 1430.710938 1678.171875 1437 1688.609375 1478.808594 1685.269531 C 1482.011719 1680.96875 1480.808594 1686.800781 1478.820312 1679.269531 L 1517.859375 1695.089844 C 1526 1699.710938 1525.011719 1702.71875 1525.578125 1701.640625 C 1525.878906 1701.058594 1526.730469 1702.929688 1527.261719 1703.609375 "/>
<path fill-rule="evenodd" fill="rgb(40.989685%, 73.046875%, 90.039062%)" fill-opacity="1" d="M 1639.25 1650.511719 C 1612.449219 1661.179688 1584.878906 1650.03125 1555.070312 1641.660156 C 1521.941406 1632.351562 1499.460938 1636.191406 1495.601562 1601.550781 L 1639.25 1650.511719 "/>
<path fill-rule="evenodd" fill="rgb(96.09375%, 96.09375%, 96.09375%)" fill-opacity="1" d="M 1601.539062 1823.890625 C 1639.75 1824.871094 1648.328125 1824.738281 1683.03125 1819.480469 C 1680.53125 1830.671875 1675.519531 1837.664062 1667.230469 1841.9375 C 1621.378906 1849.304688 1575.488281 1850.589844 1558.578125 1814.441406 L 1601.539062 1823.890625 "/>
<path fill-rule="evenodd" fill="rgb(92.96875%, 90.039062%, 81.054688%)" fill-opacity="1" d="M 1315.628906 1521.25 C 1310.191406 1528.789062 1310.859375 1527.480469 1301.148438 1533.96875 C 1293.421875 1539.128906 1292.179688 1540.601562 1284.761719 1546.539062 C 1262.699219 1564.199219 1272.300781 1566.011719 1254.199219 1573.5 L 1274.261719 1582.429688 C 1240.371094 1578.628906 1257.351562 1580.601562 1250.25 1575.800781 L 1246.570312 1573.050781 C 1230.519531 1562.710938 1261.269531 1581.398438 1242.480469 1570.699219 C 1236.808594 1567.46875 1238.621094 1570.238281 1232.769531 1565.171875 C 1239.480469 1551.789062 1260.550781 1525.289062 1273.871094 1519.128906 C 1294.621094 1509.53125 1301.210938 1523.359375 1315.628906 1521.25 "/>
<path fill-rule="evenodd" fill="rgb(7.006836%, 16.992188%, 21.99707%)" fill-opacity="1" d="M 1370.128906 1379.039062 C 1335.058594 1298.109375 1378.960938 1191.488281 1434.390625 1184.078125 C 1425.109375 1202.238281 1395.179688 1214.300781 1377.480469 1258.441406 C 1360.390625 1301.070312 1372.671875 1336.070312 1370.128906 1379.039062 "/>
<path fill-rule="evenodd" fill="rgb(91.014099%, 89.0625%, 77.929688%)" fill-opacity="1" d="M 1714.210938 1563.910156 C 1710.570312 1541.210938 1753.148438 1500.921875 1761.578125 1496.679688 C 1760.988281 1511.089844 1738.328125 1575.019531 1728.980469 1587.078125 C 1720.710938 1583.808594 1715.679688 1573.058594 1714.210938 1563.910156 "/>
<path fill-rule="evenodd" fill="rgb(92.96875%, 90.039062%, 81.054688%)" fill-opacity="1" d="M 1231.859375 1471.789062 L 1221.671875 1483.140625 C 1218 1489.691406 1218.78125 1483.878906 1225.46875 1486.488281 C 1225.820312 1486.621094 1227.039062 1486.839844 1227.769531 1487.191406 C 1224.289062 1495.238281 1202.539062 1548 1198.808594 1520.980469 C 1197.019531 1525.398438 1196.449219 1526.699219 1195.03125 1531.800781 C 1189.949219 1527.671875 1194.039062 1531.828125 1189.511719 1526.410156 L 1181.589844 1515.25 C 1185.75 1496.449219 1197.460938 1477.628906 1209.140625 1467.140625 C 1223.039062 1469.449219 1217.109375 1470.109375 1231.859375 1471.789062 "/>
<path fill-rule="evenodd" fill="rgb(91.014099%, 88.084412%, 78.90625%)" fill-opacity="1" d="M 1729.660156 1674.550781 C 1742.128906 1669.78125 1744.851562 1667.601562 1755.160156 1659.710938 C 1759.21875 1656.601562 1763.011719 1653.390625 1766.671875 1650.691406 C 1769.238281 1648.789062 1777.171875 1647.21875 1769.289062 1648.660156 C 1770.25 1647.640625 1770.949219 1645.75 1771.378906 1645.039062 L 1775.550781 1638.78125 L 1798.960938 1631.421875 C 1792 1642.921875 1747.289062 1696.179688 1739.558594 1699.359375 C 1728.71875 1703.808594 1718.75 1695.519531 1714.808594 1685.378906 C 1721.210938 1675.289062 1720.949219 1676.441406 1729.660156 1674.550781 "/>
<path fill-rule="evenodd" fill="rgb(91.014099%, 88.084412%, 78.90625%)" fill-opacity="1" d="M 1731.25 2114.25 C 1713.289062 2129.484375 1689.699219 2111.113281 1683.878906 2100.421875 C 1677.449219 2088.617188 1662.609375 2064.621094 1660.441406 2053.027344 C 1674.050781 2060.941406 1726.941406 2101.070312 1731.25 2114.25 "/>
<path fill-rule="evenodd" fill="rgb(96.09375%, 96.09375%, 96.09375%)" fill-opacity="1" d="M 1556.78125 1677.691406 C 1532.730469 1679.089844 1521.121094 1669.300781 1513.171875 1636.648438 L 1569.859375 1652.890625 C 1567.921875 1664.53125 1563.101562 1668.890625 1556.78125 1677.691406 "/>
<path fill-rule="evenodd" fill="rgb(3.999329%, 1.997375%, 1.997375%)" fill-opacity="1" d="M 1550 1783.039062 C 1543.441406 1789.199219 1538.878906 1788.960938 1530.699219 1795.808594 C 1521.78125 1803.289062 1521 1807.988281 1516.710938 1817.300781 C 1496.050781 1805.058594 1498.171875 1793.371094 1507.171875 1775.980469 C 1523.359375 1774.648438 1536.191406 1778.480469 1550 1783.039062 "/>
<path fill-rule="evenodd" fill="rgb(42.993164%, 75.976562%, 93.943787%)" fill-opacity="1" d="M 1448.679688 1628.339844 C 1452.578125 1635.601562 1445.230469 1631.289062 1459.128906 1632.359375 C 1465.898438 1632.890625 1462.820312 1630 1471.898438 1633.148438 C 1478.640625 1635.488281 1483.070312 1646.25 1485.609375 1650.210938 C 1447.179688 1648.960938 1437.488281 1652.621094 1422.730469 1621.921875 C 1423.328125 1621.578125 1424.191406 1620.199219 1424.410156 1620.730469 C 1427.558594 1628.148438 1427.199219 1618.671875 1427.789062 1618.28125 C 1432.929688 1614.851562 1427.050781 1617.808594 1433.320312 1614.871094 C 1441.421875 1621.761719 1438.308594 1623.191406 1448.679688 1628.339844 "/>
<path fill-rule="evenodd" fill="rgb(63.084412%, 58.006287%, 45.996094%)" fill-opacity="1" d="M 1342.039062 1980.789062 C 1323.078125 1972.515625 1340.5 1978.421875 1325.460938 1969.355469 C 1325.230469 1969.21875 1324.449219 1968.855469 1324.25 1968.761719 C 1313.230469 1963.574219 1300.921875 1915.792969 1303.359375 1911.421875 C 1315.378906 1928.929688 1336.898438 1935.59375 1342.039062 1980.789062 "/>
<path fill-rule="evenodd" fill="rgb(7.006836%, 4.998779%, 1.997375%)" fill-opacity="1" d="M 1835.390625 1929.277344 C 1824.671875 1950.816406 1815.570312 1973.660156 1808.429688 1999.007812 C 1803.859375 1993.113281 1805.691406 2004.507812 1802.960938 1987.625 C 1802.671875 1985.84375 1804.78125 1927.191406 1835.390625 1929.277344 "/>
<path fill-rule="evenodd" fill="rgb(42.993164%, 39.988708%, 32.00531%)" fill-opacity="1" d="M 1164.921875 2032.90625 L 1174.28125 2035.574219 C 1176.378906 2023.984375 1171.609375 2031.246094 1180.109375 2024.871094 C 1189.941406 2030.734375 1205.148438 2043.902344 1210.460938 2053.226562 C 1193.511719 2046.851562 1194.039062 2041.136719 1180.359375 2033.519531 C 1196.101562 2051.382812 1206.308594 2053.40625 1213.421875 2070.367188 C 1198.730469 2066.019531 1172.238281 2044.726562 1164.921875 2032.90625 "/>
<path fill-rule="evenodd" fill="rgb(55.076599%, 52.929688%, 43.992615%)" fill-opacity="1" d="M 1171.371094 2013.515625 C 1170.441406 2000.496094 1169.148438 2004.195312 1168.03125 1996.328125 C 1167.261719 1990.882812 1168.160156 1991.550781 1168.25 1984.0625 C 1174.980469 1988.921875 1175.929688 1989.222656 1180.648438 1997.164062 C 1186.101562 2006.34375 1182.429688 2004.460938 1186.511719 2010.628906 C 1187.808594 2012.59375 1195.761719 2022.703125 1197.960938 2024.660156 C 1209.851562 2035.1875 1205.109375 2025.554688 1212.101562 2041.976562 C 1194.960938 2036.613281 1192.421875 2031.933594 1179.789062 2019.839844 C 1175.71875 2015.945312 1177.421875 2016.078125 1171.371094 2013.515625 "/>
<path fill-rule="evenodd" fill="rgb(18.992615%, 35.009766%, 44.993591%)" fill-opacity="1" d="M 1525.171875 1179.589844 C 1506.148438 1176.351562 1507.589844 1175.421875 1487.261719 1177.28125 C 1473.019531 1178.570312 1460.539062 1182.269531 1451.421875 1177.058594 L 1494.710938 1164.390625 L 1489.019531 1157.101562 C 1503.699219 1162.039062 1497.230469 1162.230469 1504.300781 1168.289062 C 1510.328125 1173.460938 1513.71875 1168.929688 1525.171875 1179.589844 "/>
<path fill-rule="evenodd" fill="rgb(63.084412%, 58.006287%, 45.996094%)" fill-opacity="1" d="M 1729.660156 1674.550781 C 1735.171875 1660.089844 1732.609375 1660.53125 1747.398438 1651.828125 C 1757.351562 1645.96875 1764.269531 1642.050781 1775.550781 1638.78125 L 1771.378906 1645.039062 C 1770.949219 1645.75 1770.25 1647.640625 1769.289062 1648.660156 C 1777.171875 1647.21875 1769.238281 1648.789062 1766.671875 1650.691406 C 1763.011719 1653.390625 1759.21875 1656.601562 1755.160156 1659.710938 C 1744.851562 1667.601562 1742.128906 1669.78125 1729.660156 1674.550781 "/>
<path fill-rule="evenodd" fill="rgb(42.993164%, 75.976562%, 93.943787%)" fill-opacity="1" d="M 1777.859375 1591.980469 C 1774.640625 1607.371094 1767.140625 1614.28125 1750.648438 1617.71875 C 1753.109375 1608.378906 1762.238281 1592.640625 1766.679688 1583.351562 C 1778.378906 1586.390625 1773.910156 1582.460938 1777.859375 1591.980469 "/>
<path fill-rule="evenodd" fill="rgb(7.006836%, 16.992188%, 21.99707%)" fill-opacity="1" d="M 780.390625 1193.339844 C 770.234375 1191.351562 776.371094 1194.191406 769.972656 1188.679688 C 765.09375 1184.480469 771.21875 1188.160156 762.703125 1180.339844 L 767.253906 1191.53125 C 756.550781 1184.691406 761.28125 1188.839844 752.996094 1176.550781 C 746.207031 1166.46875 745.636719 1167.191406 742.433594 1153.851562 C 755.671875 1159.980469 774.65625 1181.730469 780.390625 1193.339844 "/>
<path fill-rule="evenodd" fill="rgb(42.993164%, 75.976562%, 93.943787%)" fill-opacity="1" d="M 1160.289062 1474.179688 L 1164.089844 1461.199219 C 1151.609375 1454.148438 1160.539062 1478.179688 1152.921875 1464.121094 C 1152.480469 1463.320312 1151.148438 1465.21875 1150.191406 1465.601562 C 1151.378906 1455.300781 1148.96875 1458.421875 1154.898438 1450.261719 L 1148.359375 1449.390625 C 1149.511719 1448.078125 1147.808594 1435.578125 1172.710938 1448.199219 C 1170.191406 1476.25 1163.21875 1472.148438 1160.289062 1474.179688 "/>
<path fill-rule="evenodd" fill="rgb(50.976562%, 46.99707%, 40.989685%)" fill-opacity="1" d="M 1564.210938 2112.035156 L 1556.78125 2117.414062 C 1550.101562 2115.421875 1549.890625 2114.460938 1545.609375 2112.535156 C 1535.109375 2107.804688 1552.128906 2113.121094 1542.53125 2111.070312 L 1539.800781 2111.253906 C 1539.789062 2111.253906 1540.351562 2115.496094 1530.941406 2111.265625 C 1520.410156 2106.535156 1526.699219 2109.363281 1522.53125 2104.050781 C 1523.238281 2103.492188 1524.339844 2102.785156 1524.738281 2102.5 C 1525.128906 2102.222656 1526.488281 2101.25 1526.878906 2100.96875 L 1530.789062 2098.039062 C 1551.769531 2106.773438 1547.808594 2099.007812 1556.699219 2103.964844 C 1570.46875 2111.632812 1559.371094 2104.328125 1564.210938 2112.035156 "/>
<path fill-rule="evenodd" fill="rgb(18.992615%, 35.009766%, 44.993591%)" fill-opacity="1" d="M 933.210938 1162.269531 L 921.929688 1157.828125 L 924.007812 1166.210938 C 911.636719 1162.359375 917.054688 1164.019531 906.460938 1153.140625 C 900.121094 1146.628906 896.988281 1144.140625 891.242188 1136.480469 C 899.1875 1138.699219 906.140625 1142.378906 913.46875 1145.929688 C 932.742188 1155.25 929.527344 1156.558594 933.210938 1162.269531 "/>
<path fill-rule="evenodd" fill="rgb(14.988708%, 28.001404%, 34.008789%)" fill-opacity="1" d="M 1289.859375 1011.039062 C 1280.710938 1008.050781 1286.679688 1008.480469 1284.078125 1014.769531 C 1274.101562 1008.429688 1263.761719 995.738281 1259.621094 982.578125 C 1272.480469 988.789062 1285.160156 999.839844 1289.859375 1011.039062 "/>
<path fill-rule="evenodd" fill="rgb(27.001953%, 41.992188%, 44.993591%)" fill-opacity="1" d="M 1479.988281 729.710938 C 1486.339844 727.328125 1485.671875 733.851562 1484.261719 722.539062 C 1494.019531 728.808594 1504.898438 741.199219 1508.648438 753.730469 C 1500.660156 749.949219 1500.378906 749.128906 1493.980469 744.289062 C 1483.269531 736.191406 1485.429688 738.699219 1479.988281 729.710938 "/>
<path fill-rule="evenodd" fill="rgb(12.988281%, 29.00238%, 38.989258%)" fill-opacity="1" d="M 1212.429688 960.828125 L 1206.03125 958.058594 L 1209.121094 963.921875 C 1197.25 959.449219 1189.199219 946.921875 1185.941406 934.488281 C 1198.601562 941.050781 1207.25 948.488281 1212.429688 960.828125 "/>
<path fill-rule="evenodd" fill="rgb(21.99707%, 40.989685%, 50.976562%)" fill-opacity="1" d="M 1162.890625 1402.699219 L 1153.191406 1395.898438 L 1136.25 1411.390625 C 1135.761719 1398.199219 1144.378906 1391.351562 1153.371094 1384.039062 C 1153.871094 1385 1154.578125 1386.101562 1155.019531 1386.851562 L 1158.128906 1392.058594 C 1158.589844 1392.878906 1159.171875 1393.660156 1159.570312 1394.421875 C 1163.308594 1401.46875 1159.351562 1391.621094 1162.890625 1402.699219 "/>
</svg>
